<svg width="9" height="9" viewBox="0 0 9 9" fill="none" xmlns="http://www.w3.org/2000/svg">
<path fill-rule="evenodd" clip-rule="evenodd" d="M3.66592 0.845947C3.45902 0.845947 3.2606 0.927986 3.1143 1.07402C2.968 1.22005 2.88581 1.4181 2.88581 1.62462V2.40329H3.66592V1.62462H7.95649V5.90733H7.17639V6.686H7.95649C8.16339 6.686 8.36181 6.60396 8.50811 6.45793C8.65441 6.3119 8.7366 6.11384 8.7366 5.90733V1.62462C8.7366 1.4181 8.65441 1.22005 8.50811 1.07402C8.36181 0.927986 8.16339 0.845947 7.95649 0.845947H3.66592ZM1.71565 2.79263C1.50876 2.79263 1.31033 2.87467 1.16403 3.0207C1.01774 3.16673 0.935547 3.36479 0.935547 3.57131V7.85401C0.935547 8.06053 1.01774 8.25859 1.16403 8.40462C1.31033 8.55065 1.50876 8.63269 1.71565 8.63269H6.00623C6.21313 8.63269 6.41155 8.55065 6.55785 8.40462C6.70415 8.25859 6.78634 8.06053 6.78634 7.85401V3.57131C6.78634 3.36479 6.70415 3.16673 6.55785 3.0207C6.41155 2.87467 6.21313 2.79263 6.00623 2.79263H1.71565Z" fill="#B5C6FF"/>
</svg>
