<svg width="24" height="24" viewBox="0 0 24 24" fill="none" xmlns="http://www.w3.org/2000/svg">
<path d="M10.0114 12.5647L6.15409 11.0646C5.54238 10.8268 5.14027 10.6694 4.86466 10.5335C4.86463 10.5335 4.86461 10.5335 4.86458 10.5335L10.0114 12.5647ZM10.0114 12.5647L10.0116 12.5647L10.062 12.5843L10.0624 12.5844C10.2513 12.6572 10.476 12.7444 10.6723 12.8844C10.8437 13.0067 10.9935 13.1565 11.1158 13.3279C11.2558 13.5242 11.3429 13.7488 11.4158 13.9378L11.4158 13.9379L11.4355 13.9886L11.4355 13.9888L12.9356 17.846C12.9356 17.846 12.9356 17.846 12.9356 17.846C13.1735 18.4579 13.3308 18.8599 13.4666 19.1356L13.4666 19.1356C13.4779 19.1585 13.4886 19.1795 13.4987 19.1986L13.5876 19.3671L13.6758 19.1982C13.6856 19.1794 13.6962 19.1586 13.7074 19.136L13.7075 19.1357C13.8438 18.8602 14.0015 18.4584 14.2401 17.8468L18.8354 6.07137C19.0515 5.51774 19.1903 5.15956 19.2668 4.8961C19.2668 4.89615 19.2668 4.89621 19.2667 4.89627L10.0114 12.5647ZM15.9002 18.544L15.9002 18.5439L20.5287 6.68353L20.5288 6.68334C20.7249 6.18082 20.8939 5.74768 20.9955 5.39805C21.093 5.06212 21.1922 4.6093 21.0417 4.15859C20.8524 3.5922 20.408 3.14772 19.8416 2.95851L15.9002 18.544ZM15.9002 18.544C15.6817 19.1041 15.4961 19.5796 15.3211 19.9336C15.1576 20.2639 14.9091 20.6995 14.4629 20.9314C13.9131 21.2169 13.2586 21.2166 12.7091 20.9303C12.2631 20.698 12.0151 20.2621 11.8522 19.9315L11.8522 19.9315M15.9002 18.544L11.8522 19.9315M11.8522 19.9315C11.6776 19.5774 11.4925 19.1016 11.2746 18.5413L9.75784 14.6411C9.70789 14.5126 9.68144 14.4453 9.65968 14.3963L9.65922 14.3953M11.8522 19.9315L9.65922 14.3953M9.65922 14.3953L9.65777 14.3921L9.64368 14.3611M9.65922 14.3953L9.64368 14.3611M9.64368 14.3611L9.61363 14.3452M9.64368 14.3611L9.61363 14.3452M9.61363 14.3452C9.60911 14.3428 9.60503 14.341 9.60259 14.34C9.55378 14.3183 9.48637 14.2919 9.3592 14.2423L9.35915 14.2423M9.61363 14.3452L9.35915 14.2423M9.35915 14.2423L5.45891 12.7256C4.89854 12.5077 4.42281 12.3226 4.06868 12.148L4.06866 12.148M9.35915 14.2423L4.06866 12.148M4.06866 12.148C3.73813 11.9851 3.30221 11.7371 3.06987 11.2911C2.78358 10.7416 2.7832 10.0871 3.06884 9.53724C3.30065 9.09104 3.73628 8.84248 4.06662 8.67914C4.42056 8.50414 4.89609 8.31848 5.45619 8.09994L5.45619 8.09994M4.06866 12.148L5.45619 8.09994M5.45619 8.09994L17.3166 3.47149L17.2804 3.37885M5.45619 8.09994L17.2804 3.37885M17.2804 3.37885L17.3166 3.47149C17.8192 3.27532 18.2525 3.10633 18.6021 3.00475L17.2804 3.37885ZM4.86444 10.2927L4.86426 10.2928L19.2824 4.84022L19.3271 4.67311L19.16 4.71775C19.1429 4.7223 19.1243 4.72746 19.1042 4.73329L19.1229 4.79752L19.1042 4.7333C18.8407 4.80983 18.4826 4.94868 17.9288 5.16478L6.15332 9.76009C5.54186 9.9987 5.1399 10.1564 4.86444 10.2927Z" fill="#0000FF" stroke="white" stroke-width="0.2"/>
</svg>
