<svg width="41" height="41" viewBox="0 0 41 41" fill="none" xmlns="http://www.w3.org/2000/svg">
<ellipse opacity="0.1" cx="20.491" cy="20.5" rx="20.491" ry="20.5" fill="#0000FF"/>
<path d="M11.9671 28.2445C11.4312 28.2445 10.9727 28.0551 10.5914 27.6763C10.2095 27.2968 10.0186 26.8408 10.0186 26.3084V14.6917C10.0186 14.1593 10.2095 13.7037 10.5914 13.3248C10.9727 12.9454 11.4312 12.7556 11.9671 12.7556H17.8126L19.7611 14.6917H27.5551C28.0909 14.6917 28.5498 14.8815 28.9317 15.2609C29.3129 15.6398 29.5036 16.0954 29.5036 16.6278H18.9573L17.0088 14.6917H11.9671V26.3084L14.3053 18.5639H30.9649L28.4562 26.865C28.3263 27.2845 28.087 27.6195 27.7382 27.8699C27.3888 28.1196 27.003 28.2445 26.5808 28.2445H11.9671ZM14.013 26.3084H26.5808L28.3345 20.5001H15.7666L14.013 26.3084ZM14.013 26.3084L15.7666 20.5001L14.013 26.3084ZM11.9671 16.6278V14.6917V16.6278Z" fill="#0000FF"/>
</svg>
