<svg width="20" height="19" viewBox="0 0 20 19" fill="none" xmlns="http://www.w3.org/2000/svg">
<path d="M-1.03815e-07 16.625C-7.52655e-08 17.2781 0.244583 17.837 0.733749 18.3018C1.22375 18.7673 1.8125 19 2.5 19L11.25 19C11.9375 19 12.5263 18.7673 13.0163 18.3018C13.5054 17.837 13.75 17.2781 13.75 16.625C13.75 15.9719 13.5054 15.413 13.0162 14.9483C12.5263 14.4828 11.9375 14.25 11.25 14.25L2.5 14.25C1.8125 14.25 1.22375 14.4828 0.733749 14.9483C0.244583 15.413 -1.32364e-07 15.9719 -1.03815e-07 16.625ZM-4.15258e-07 9.5C-3.86709e-07 10.1531 0.244583 10.712 0.733749 11.1768C1.22375 11.6423 1.8125 11.875 2.5 11.875L17.5 11.875C18.1875 11.875 18.7758 11.6422 19.265 11.1767C19.755 10.712 20 10.1531 20 9.5C20 8.84688 19.755 8.28756 19.265 7.82206C18.7758 7.35735 18.1875 7.125 17.5 7.125L2.5 7.125C1.8125 7.125 1.22375 7.35735 0.733749 7.82206C0.244583 8.28756 -4.43807e-07 8.84688 -4.15258e-07 9.5ZM-7.26702e-07 2.375C-6.98153e-07 3.02813 0.244582 3.58744 0.733749 4.05294C1.22375 4.51765 1.8125 4.75 2.5 4.75L6.25 4.75C6.9375 4.75 7.52625 4.51765 8.01625 4.05294C8.50542 3.58744 8.75 3.02813 8.75 2.375C8.75 1.72187 8.50542 1.16256 8.01625 0.697062C7.52625 0.232354 6.9375 5.7098e-07 6.25 6.01032e-07L2.5 7.64949e-07C1.8125 7.95001e-07 1.22375 0.232354 0.733749 0.697062C0.244582 1.16256 -7.55251e-07 1.72188 -7.26702e-07 2.375Z" fill="#191919"/>
</svg>
