<svg width="24" height="24" viewBox="0 0 24 24" fill="none" xmlns="http://www.w3.org/2000/svg">
<path d="M12.0265 20C9.6347 20 7.24291 19.6373 4.97431 18.9118C4.11203 18.6275 3.45506 18.049 3.16764 17.2941C2.86995 16.5392 2.9726 15.7059 3.4448 14.9608L4.62529 13.0882C4.87166 12.6961 5.09749 11.9118 5.09749 11.451V8.61765C5.09749 4.97059 8.20784 2 12.0265 2C15.8451 2 18.9555 4.97059 18.9555 8.61765V11.451C18.9555 11.902 19.1813 12.6961 19.4277 13.098L20.5979 14.9608C21.0393 15.6667 21.1214 16.5196 20.8237 17.2941C20.5261 18.0686 19.8794 18.6569 19.0684 18.9118C16.8101 19.6373 14.4183 20 12.0265 20ZM12.0265 3.47059C9.05985 3.47059 6.63727 5.77451 6.63727 8.61765V11.451C6.63727 12.1667 6.32931 13.2255 5.9495 13.8431L4.76901 15.7157C4.54317 16.0784 4.48158 16.4608 4.61503 16.7843C4.73821 17.1176 5.04617 17.3725 5.46704 17.5098C9.75788 18.8824 14.3054 18.8824 18.5962 17.5098C18.9658 17.3922 19.2532 17.1274 19.3866 16.7745C19.5201 16.4216 19.4893 16.0392 19.284 15.7157L18.1035 13.8431C17.7134 13.2059 17.4157 12.1569 17.4157 11.4412V8.61765C17.4157 5.77451 15.0034 3.47059 12.0265 3.47059Z" fill="#0000FF"/>
<path d="M13.2792 3.99484C13.212 3.99484 13.1447 3.98399 13.0775 3.96229C12.7989 3.87548 12.53 3.81038 12.2706 3.76698C11.4541 3.64762 10.6664 3.71272 9.92679 3.96229C9.65782 4.05995 9.36965 3.96229 9.18714 3.73442C9.00463 3.50655 8.947 3.18103 9.05266 2.88805C9.4465 1.74871 10.4071 1 11.5021 1C12.5972 1 13.5578 1.73786 13.9516 2.88805C14.0477 3.18103 13.9996 3.50655 13.8171 3.73442C13.673 3.90804 13.4713 3.99484 13.2792 3.99484Z" fill="#0000FF"/>
<path d="M12 23C10.944 23 9.92 22.5733 9.17333 21.8267C8.42667 21.08 8 20.056 8 19H9.6C9.6 19.6293 9.856 20.248 10.304 20.696C10.752 21.144 11.3707 21.4 12 21.4C13.3227 21.4 14.4 20.3227 14.4 19H16C16 21.208 14.208 23 12 23Z" fill="#0000FF"/>
</svg>
