<svg width="20" height="20" viewBox="0 0 20 20" fill="none" xmlns="http://www.w3.org/2000/svg">
<g clip-path="url(#clip0_66_991)">
<path d="M13.2987 9.60911L9.14578 6.59024C8.99337 6.47976 8.79105 6.46312 8.624 6.54898C8.45562 6.63416 8.35046 6.8072 8.35046 6.99422V13.03C8.35046 13.219 8.45562 13.3913 8.624 13.4765C8.69521 13.5125 8.77308 13.5304 8.85161 13.5304C8.9541 13.5304 9.05793 13.4978 9.14578 13.4333L13.2987 10.4171C13.4298 10.3206 13.5064 10.1715 13.5064 10.0131C13.507 9.85203 13.4285 9.70361 13.2987 9.60911Z" fill="#811630"/>
<path d="M10.0003 0.00170898C4.47639 0.00170898 0 4.4781 0 10.002C0 15.524 4.47639 19.999 10.0003 19.999C15.5229 19.999 20 15.5233 20 10.002C20.0007 4.4781 15.5229 0.00170898 10.0003 0.00170898ZM10.0003 18.3305C5.40015 18.3305 1.67049 14.6029 1.67049 10.002C1.67049 5.40319 5.40015 1.67087 10.0003 1.67087C14.5998 1.67087 18.3288 5.40253 18.3288 10.002C18.3295 14.6029 14.5998 18.3305 10.0003 18.3305Z" fill="#811630"/>
</g>
<defs>
<clipPath id="clip0_66_991">
<rect width="20" height="20" fill="white"/>
</clipPath>
</defs>
</svg>
