<svg width="20" height="20" viewBox="0 0 20 20" fill="none" xmlns="http://www.w3.org/2000/svg">
<path d="M8.01145 10.5647L4.15409 9.06461C3.54238 8.82676 3.14027 8.66943 2.86466 8.5353C2.86463 8.53352 2.86461 8.5335 2.86458 8.53349L8.01145 10.5647ZM8.01145 10.5647L8.01156 10.5647L8.06201 10.5843L8.06236 10.5844C8.25132 10.6572 8.47602 10.7444 8.67232 10.8844C8.84371 11.0067 8.99352 11.1565 9.11579 11.3279C9.25578 11.5242 9.34288 11.7488 9.41581 11.9378L9.41585 11.9379L9.4355 11.9886L9.43554 11.9888L10.9356 15.846C10.9356 15.846 10.9356 15.846 10.9356 15.846C11.1735 16.4579 11.3308 16.8599 11.4666 17.1356L11.4666 17.1356C11.4779 17.1585 11.4886 17.1795 11.4987 17.1986L11.5876 17.3671L11.6758 17.1982C11.6856 17.1794 11.6962 17.1586 11.7074 17.136L11.7075 17.1357C11.8438 16.8602 12.0015 16.4584 12.2401 15.8468L8.01145 10.5647ZM13.9002 16.544L13.9002 16.5439L18.5287 4.68353L18.5288 4.68332C18.7249 4.18081 18.8939 3.74768 18.9955 3.39805C19.093 3.06212 19.1922 2.6093 19.0417 2.15859C18.8524 1.5922 18.408 1.14772 17.8416 0.95851L13.9002 16.544ZM13.9002 16.544C13.6817 17.1041 13.4961 17.5796 13.3211 17.9336C13.1576 18.2639 12.9091 18.6995 12.4629 18.9314C11.9131 19.2169 11.2586 19.2166 10.7091 18.9303C10.2631 18.698 10.0151 18.2621 9.8522 17.9315L9.85219 17.9315M13.9002 16.544L9.85219 17.9315M9.85219 17.9315C9.67756 17.5774 9.49252 17.1016 9.2746 16.5413L7.75784 12.6411C7.70789 12.5126 7.68144 12.4453 7.65968 12.3963L7.65922 12.3953M9.85219 17.9315L7.65922 12.3953M7.65922 12.3953L7.65777 12.3921L7.64368 12.3611M7.65922 12.3953L7.64368 12.3611M7.64368 12.3611L7.61362 12.3452M7.64368 12.3611L7.61362 12.3452M7.61362 12.3452C7.60909 12.3428 7.60499 12.341 7.60259 12.34C7.55377 12.3183 7.48637 12.2919 7.35921 12.2423L7.35915 12.2423M7.61362 12.3452L7.35915 12.2423M7.35915 12.2423L3.45891 10.7256C2.89854 10.5077 2.42281 10.3226 2.06868 10.148L2.06866 10.148M7.35915 12.2423L2.06866 10.148M2.06866 10.148C1.73813 9.98511 1.30221 9.73706 1.06987 9.2911C0.783583 8.74162 0.783203 8.08707 1.06884 7.53724C1.30065 7.09104 1.73628 6.84248 2.06662 6.67914C2.42056 6.50414 2.89609 6.31848 3.45619 6.09994L3.45619 6.09994M2.06866 10.148L3.45619 6.09994M3.45619 6.09994L15.3166 1.47149L15.2802 1.37833M3.45619 6.09994L15.2802 1.37833M15.2802 1.37833L15.3166 1.47149C15.8192 1.27532 16.2525 1.10633 16.6021 1.00475L15.2802 1.37833ZM17.1042 2.73329L17.1042 2.7333L17.2116 2.91098L17.2026 2.87742L17.2667 2.89626C17.2668 2.89615 17.2668 2.89604 17.2668 2.89592C17.2728 2.87561 17.2779 2.857 17.2824 2.84022L17.3271 2.67311L17.16 2.71775C17.1429 2.7223 17.1243 2.72746 17.1042 2.73329Z" fill="#0000FF" stroke="white" stroke-width="0.2"/>
</svg>
