<svg width="18" height="20" viewBox="0 0 18 20" fill="none" xmlns="http://www.w3.org/2000/svg">
<path d="M12 2.15H12.15V2V1C12.15 0.530843 12.5308 0.15 13 0.15C13.4692 0.15 13.85 0.530843 13.85 1V2V2.15H14C16.1262 2.15 17.85 3.87384 17.85 6V16C17.85 18.1262 16.1262 19.85 14 19.85H13.9832H13.9664H13.9496H13.9327H13.9158H13.8989H13.8819H13.8649H13.8479H13.8308H13.8137H13.7966H13.7794H13.7623H13.745H13.7278H13.7105H13.6932H13.6759H13.6585H13.6411H13.6237H13.6062H13.5887H13.5712H13.5537H13.5361H13.5185H13.5009H13.4832H13.4655H13.4478H13.43H13.4123H13.3945H13.3766H13.3588H13.3409H13.323H13.305H13.2871H13.2691H13.251H13.233H13.2149H13.1968H13.1787H13.1605H13.1423H13.1241H13.1059H13.0876H13.0693H13.051H13.0327H13.0143H12.9959H12.9775H12.959H12.9406H12.9221H12.9036H12.885H12.8664H12.8479H12.8292H12.8106H12.7919H12.7732H12.7545H12.7358H12.717H12.6983H12.6795H12.6606H12.6418H12.6229H12.604H12.5851H12.5661H12.5472H12.5282H12.5092H12.4902H12.4711H12.452H12.4329H12.4138H12.3947H12.3755H12.3563H12.3371H12.3179H12.2987H12.2794H12.2601H12.2408H12.2215H12.2021H12.1828H12.1634H12.144H12.1246H12.1051H12.0857H12.0662H12.0467H12.0272H12.0076H11.9881H11.9685H11.9489H11.9293H11.9096H11.89H11.8703H11.8506H11.8309H11.8112H11.7915H11.7717H11.752H11.7322H11.7124H11.6925H11.6727H11.6529H11.633H11.6131H11.5932H11.5733H11.5533H11.5334H11.5134H11.4934H11.4734H11.4534H11.4334H11.4134H11.3933H11.3732H11.3531H11.333H11.3129H11.2928H11.2726H11.2525H11.2323H11.2121H11.1919H11.1717H11.1515H11.1312H11.111H11.0907H11.0704H11.0502H11.0298H11.0095H10.9892H10.9689H10.9485H10.9281H10.9078H10.8874H10.867H10.8466H10.8261H10.8057H10.7853H10.7648H10.7443H10.7239H10.7034H10.6829H10.6624H10.6419H10.6213H10.6008H10.5802H10.5597H10.5391H10.5185H10.4979H10.4774H10.4567H10.4361H10.4155H10.3949H10.3742H10.3536H10.3329H10.3123H10.2916H10.2709H10.2502H10.2295H10.2088H10.1881H10.1674H10.1467H10.126H10.1052H10.0845H10.0637H10.043H10.0222H10.0014H9.98065H9.95987H9.93908H9.91829H9.89749H9.87668H9.85587H9.83506H9.81424H9.79341H9.77258H9.75174H9.7309H9.71006H9.68921H9.66836H9.6475H9.62664H9.60578H9.58491H9.56404H9.54316H9.52228H9.5014H9.48052H9.45963H9.43874H9.41785H9.39695H9.37605H9.35515H9.33425H9.31335H9.29244H9.27153H9.25062H9.22971H9.2088H9.18789H9.16697H9.14605H9.12514H9.10422H9.0833H9.06238H9.04146H9.02055H8.99963H8.97871H8.95779H8.93687H8.91595H8.89503H8.87411H8.8532H8.83228H8.81137H8.79045H8.76954H8.74863H8.72772H8.70681H8.68591H8.665H8.6441H8.6232H8.6023H8.58141H8.56052H8.53963H8.51874H8.49786H8.47697H8.4561H8.43522H8.41435H8.39348H8.37262H8.35176H8.3309H8.31005H8.2892H8.26836H8.24752H8.22669H8.20586H8.18503H8.16421H8.1434H8.12259H8.10178H8.08099H8.06019H8.0394H8.01862H7.99785H7.97708H7.95632H7.93556H7.91481H7.89406H7.87333H7.8526H7.83187H7.81116H7.79045H7.76975H7.74905H7.72837H7.70769H7.68702H7.66636H7.6457H7.62506H7.60442H7.58379H7.56317H7.54256H7.52196H7.50136H7.48078H7.4602H7.43964H7.41908H7.39853H7.378H7.35747H7.33695H7.31645H7.29595H7.27546H7.25499H7.23452H7.21407H7.19363H7.17319H7.15277H7.13236H7.11197H7.09158H7.07121H7.05084H7.03049H7.01015H6.98983H6.96951H6.94921H6.92892H6.90864H6.88838H6.86813H6.84789H6.82767H6.80746H6.78726H6.76708H6.74691H6.72675H6.70661H6.68648H6.66637H6.64627H6.62618H6.60611H6.58606H6.56601H6.54599H6.52598H6.50598H6.486H6.46604H6.44609H6.42616H6.40624H6.38634H6.36645H6.34658H6.32673H6.3069H6.28708H6.26728H6.24749H6.22772H6.20797H6.18824H6.16852H6.14882H6.12914H6.10948H6.08983H6.0702H6.05059H6.031H6.01143H5.99188H5.97234H5.95283H5.93333H5.91385H5.89439H5.87495H5.85553H5.83613H5.81675H5.79739H5.77805H5.75872H5.73942H5.72014H5.70088H5.68164H5.66242H5.64323H5.62405H5.60489H5.58576H5.56665H5.54755H5.52848H5.50944H5.49041H5.4714H5.45242H5.43346H5.41452H5.39561H5.37672H5.35785H5.339H5.32017H5.30137H5.2826H5.26384H5.24511H5.2264H5.20772H5.18906H5.17043H5.15182H5.13323H5.11467H5.09613H5.07761H5.05913H5.04066H5.02222H5.00381H4.98542H4.96706H4.94872H4.93041H4.91213H4.89387H4.87563H4.85743H4.83925H4.82109H4.80296H4.78486H4.76679H4.74874H4.73072H4.71273H4.69476H4.67682H4.65891H4.64103H4.62317H4.60535H4.58755H4.56978H4.55203H4.53432H4.51663H4.49898H4.48135H4.46375H4.44618H4.42864H4.41113H4.39365H4.37619H4.35877H4.34138H4.32402H4.30668H4.28938H4.27211H4.25487H4.23766H4.22048H4.20333H4.18621H4.16913H4.15207H4.13505H4.11805H4.10109H4.08416H4.06727H4.0504H4.03357H4.01677H4C1.87384 19.85 0.15 18.1262 0.15 16V6C0.15 3.87384 1.87384 2.15 4 2.15H4.15V2V1C4.15 0.530843 4.53084 0.15 5 0.15C5.46916 0.15 5.85 0.530843 5.85 1V2V2.15H6H12ZM16.15 10V9.85H16H2H1.85V10V16C1.85 17.1868 2.81211 18.15 4 18.15H14C15.1868 18.15 16.15 17.1868 16.15 16V10ZM14 3.85H13.85V4V5C13.85 5.46916 13.4692 5.85 13 5.85C12.5308 5.85 12.15 5.46916 12.15 5V4V3.85H12H6H5.85V4V5C5.85 5.46916 5.46916 5.85 5 5.85C4.53084 5.85 4.15 5.46916 4.15 5V4V3.85H4C2.81216 3.85 1.85 4.81216 1.85 6V8V8.15H2H16H16.15V8V6C16.15 4.81211 15.1868 3.85 14 3.85Z" fill="#811630" stroke="white" stroke-width="0.3"/>
</svg>
