


<svg width="22" height="22" viewBox="0 0 22 22" fill="none" xmlns="http://www.w3.org/2000/svg">
<path d="M13.25 22H8.75C8.34 22 8 21.6521 8 21.2326V2.81395C8 1.05395 8.95 0 10.55 0H11.45C13.05 0 14 1.05395 14 2.81395V21.2326C14 21.6521 13.66 22 13.25 22ZM9.5 20.4651H12.5V2.81395C12.5 1.63721 11.96 1.53488 11.45 1.53488H10.55C10.04 1.53488 9.5 1.63721 9.5 2.81395V20.4651Z" fill="#811630"/>
<path d="M5.18182 22H0.818182C0.370909 22 0 21.649 0 21.2258V8.83871C0 7.06323 0.96 6 2.56364 6H3.43636C5.04 6 6 7.06323 6 8.83871V21.2258C6 21.649 5.62909 22 5.18182 22ZM1.63636 20.4516H4.36364V8.83871C4.36364 7.54839 3.76364 7.54839 3.43636 7.54839H2.56364C2.23636 7.54839 1.63636 7.54839 1.63636 8.83871V20.4516Z" fill="#811630"/>
<path d="M21.1818 22H16.8182C16.3709 22 16 21.6438 16 21.2143V13.881C16 12.079 16.96 11 18.5636 11H19.4364C21.04 11 22 12.079 22 13.881V21.2143C22 21.6438 21.6291 22 21.1818 22ZM17.6364 20.4286H20.3636V13.881C20.3636 12.5714 19.7636 12.5714 19.4364 12.5714H18.5636C18.2364 12.5714 17.6364 12.5714 17.6364 13.881V20.4286Z" fill="#811630"/>
</svg>

