<svg width="24" height="24" viewBox="0 0 24 24" fill="none" xmlns="http://www.w3.org/2000/svg">
<path d="M23 8.14361V3.8657C23 2.53709 22.3224 2 20.6388 2H16.3612C14.6776 2 14 2.53709 14 3.8657V8.13418C14 9.47221 14.6776 9.99988 16.3612 9.99988H20.6388C22.3224 10.0093 23 9.47221 23 8.14361Z" fill="#811630" />
<path d="M23 20.6388V16.3612C23 14.6776 22.3224 14 20.6388 14H16.3612C14.6776 14 14 14.6776 14 16.3612V20.6388C14 22.3224 14.6776 23 16.3612 23H20.6388C22.3224 23 23 22.3224 23 20.6388Z" fill="#811630" />
<path d="M11 8.14361V3.8657C11 2.53709 10.3224 2 8.63882 2H4.36118C2.67765 2 2 2.53709 2 3.8657V8.13418C2 9.47221 2.67765 9.99988 4.36118 9.99988H8.63882C10.3224 10.0093 11 9.47221 11 8.14361Z" fill="#811630" />
<path d="M11 20.6388V16.3612C11 14.6776 10.3224 14 8.63882 14H4.36118C2.67765 14 2 14.6776 2 16.3612V20.6388C2 22.3224 2.67765 23 4.36118 23H8.63882C10.3224 23 11 22.3224 11 20.6388Z" fill="#811630" />
</svg>
